<svg preserveAspectRatio="none" overflow="visible" style="display: block;" width="35" height="23" viewBox="0 0 35 23" fill="none" xmlns="http://www.w3.org/2000/svg">
<g id="Vector">
<path d="M2.64868 14.613C5.78982 17.7088 11.2679 22 17.5004 22C23.7328 22 29.2099 17.7088 32.351 14.613C33.1794 13.7966 33.5951 13.3869 33.8588 12.5853C34.0471 12.0133 34.0471 10.9869 33.8588 10.4149C33.5951 9.61323 33.1795 9.20354 32.351 8.38699C29.2099 5.29117 23.7328 1 17.5004 1C11.2679 1 5.78982 5.29118 2.64868 8.38699C1.81961 9.2041 1.40504 9.61294 1.14116 10.4149C0.952948 10.9869 0.952948 12.0133 1.14116 12.5853C1.40504 13.3872 1.81961 13.7959 2.64868 14.613Z" stroke="#BCBCBC" stroke-width="2" stroke-linecap="round" stroke-linejoin="round"/>
<path d="M13.9696 11.5001C13.9696 13.4331 15.5502 15.0001 17.5001 15.0001C19.4499 15.0001 21.0305 13.4331 21.0305 11.5001C21.0305 9.56706 19.4499 8.00005 17.5001 8.00005C15.5502 8.00005 13.9696 9.56706 13.9696 11.5001Z" stroke="#BCBCBC" stroke-width="2" stroke-linecap="round" stroke-linejoin="round"/>
</g>
</svg>
