<svg preserveAspectRatio="none" overflow="visible" style="display: block;" width="24" height="24" viewBox="0 0 24 24" fill="none" xmlns="http://www.w3.org/2000/svg">
<g id="fi-rr-package" clip-path="url(#clip0_0_50)">
<path id="Vector" d="M21 7.99979H17C16.2043 7.99979 15.4413 8.31586 14.8787 8.87847C14.3161 9.44108 14 10.2041 14 10.9998V15.9998H12V11.9998C11.9994 10.9263 11.7108 9.87268 11.1643 8.94874C10.6178 8.02479 9.83343 7.26438 8.89299 6.74679C9.4339 6.1803 9.79659 5.46746 9.93606 4.69672C10.0755 3.92598 9.98566 3.13126 9.67759 2.41113C9.36951 1.691 8.85679 1.07717 8.20303 0.645786C7.54927 0.214399 6.78325 -0.0155585 5.99999 -0.0155585C5.21673 -0.0155585 4.45071 0.214399 3.79695 0.645786C3.1432 1.07717 2.63048 1.691 2.3224 2.41113C2.01432 3.13126 1.92445 3.92598 2.06392 4.69672C2.2034 5.46746 2.56609 6.1803 3.10699 6.74679C2.16655 7.26438 1.38219 8.02479 0.835705 8.94874C0.289217 9.87268 0.000614552 10.9263 -7.62939e-06 11.9998L-7.62939e-06 22.9998C-7.62939e-06 23.265 0.105349 23.5194 0.292886 23.7069C0.480422 23.8944 0.734776 23.9998 0.999992 23.9998C1.26521 23.9998 1.51956 23.8944 1.7071 23.7069C1.89464 23.5194 1.99999 23.265 1.99999 22.9998V17.9998H22V22.9998C22 23.265 22.1053 23.5194 22.2929 23.7069C22.4804 23.8944 22.7348 23.9998 23 23.9998C23.2652 23.9998 23.5196 23.8944 23.7071 23.7069C23.8946 23.5194 24 23.265 24 22.9998V10.9998C24 10.2041 23.6839 9.44108 23.1213 8.87847C22.5587 8.31586 21.7956 7.99979 21 7.99979ZM3.99999 3.99979C3.99999 3.60422 4.11729 3.21754 4.33705 2.88865C4.55682 2.55975 4.86917 2.3034 5.23463 2.15203C5.60008 2.00065 6.00221 1.96105 6.39017 2.03822C6.77813 2.11539 7.1345 2.30587 7.41421 2.58557C7.69391 2.86528 7.88439 3.22164 7.96156 3.60961C8.03873 3.99757 7.99913 4.3997 7.84775 4.76515C7.69638 5.13061 7.44003 5.44296 7.11113 5.66273C6.78223 5.88249 6.39555 5.99979 5.99999 5.99979C5.46956 5.99979 4.96085 5.78907 4.58578 5.414C4.21071 5.03893 3.99999 4.53022 3.99999 3.99979V3.99979ZM5.99999 7.99979C7.06086 7.99979 8.07827 8.42122 8.82842 9.17136C9.57857 9.92151 9.99999 10.9389 9.99999 11.9998V15.9998H1.99999V11.9998C1.99999 10.9389 2.42142 9.92151 3.17157 9.17136C3.92171 8.42122 4.93913 7.99979 5.99999 7.99979V7.99979ZM16 15.9998V10.9998C16 10.7346 16.1053 10.4802 16.2929 10.2927C16.4804 10.1051 16.7348 9.99979 17 9.99979H18V10.9998C18 11.265 18.1053 11.5194 18.2929 11.7069C18.4804 11.8944 18.7348 11.9998 19 11.9998C19.2652 11.9998 19.5196 11.8944 19.7071 11.7069C19.8946 11.5194 20 11.265 20 10.9998V9.99979H21C21.2652 9.99979 21.5196 10.1051 21.7071 10.2927C21.8946 10.4802 22 10.7346 22 10.9998V15.9998H16Z" fill="#BCBCBC"/>
</g>
<defs>
<clipPath id="clip0_0_50">
<rect width="24" height="24" fill="white"/>
</clipPath>
</defs>
</svg>
